<?xml version="1.0" encoding="UTF-8"?>
<svg width="4px" height="10px" viewBox="0 0 4 10" version="1.1" xmlns="http://www.w3.org/2000/svg" xmlns:xlink="http://www.w3.org/1999/xlink">
    <!-- Generator: Sketch 53.2 (72643) - https://sketchapp.com -->
    <title>Group</title>
    <desc>Created with Sketch.</desc>
    <g id="Page-1" stroke="none" stroke-width="1" fill="none" fill-rule="evenodd">
        <g id="Group" transform="translate(0.701613, 0.387097)" fill="#FFFFFF" fill-rule="nonzero">
            <path d="M1.2983871,6.61290323 C0.581310484,6.61290323 1.24344979e-14,7.19421371 1.24344979e-14,7.91129032 C1.24344979e-14,8.62836694 0.581310484,9.20967742 1.2983871,9.20967742 C2.01546371,9.20967742 2.59677419,8.62836694 2.59677419,7.91129032 C2.59677419,7.19421371 2.01546371,6.61290323 1.2983871,6.61290323 Z" id="Path"></path>
            <path d="M0.275060484,5.19587903 C0.284854839,5.37550806 0.433379032,5.51612903 0.613262097,5.51612903 L1.9835121,5.51612903 C2.16339516,5.51612903 2.31191935,5.37550806 2.32171371,5.19587903 L2.53109274,0.357169355 C2.54167742,0.163145161 2.38719758,-8.8817842e-15 2.19289113,-8.8817842e-15 L0.403854839,-8.8817842e-15 C0.209548387,-8.8817842e-15 0.0550967742,0.163145161 0.0656814516,0.357169355 L0.275060484,5.19587903 Z" id="Path"></path>
        </g>
    </g>
</svg>