<?xml version="1.0" encoding="UTF-8"?>
<svg width="24px" height="24px" viewBox="0 0 24 24" version="1.1" xmlns="http://www.w3.org/2000/svg" xmlns:xlink="http://www.w3.org/1999/xlink">
    <!-- Generator: Sketch 61.2 (89653) - https://sketch.com -->
    <title>icon/face-gen 04</title>
    <desc>Created with Sketch.</desc>
    <g id="UI---Create-Persona" stroke="none" stroke-width="1" fill="none" fill-rule="evenodd">
        <g id="photo-02-fg_v3" transform="translate(-488.000000, -586.000000)">
            <g id="photo" transform="translate(372.000000, 249.000000)">
                <g id="selected-photo" transform="translate(0.000000, 75.000000)">
                    <g id="Group" transform="translate(88.000000, 40.000000)">
                        <g id="icon/face-gen-05" transform="translate(28.034682, 222.000000)">
                            <g id="bcs-full-orca-icon-wn-copy-6" transform="translate(0.138728, 0.000000)">
                                <path d="M22.8855172,0.0772413793 L22.8855172,16.5655172 L11.4372414,23.9393103 L-8.67365268e-13,16.5655172 L-8.67365268e-13,0.0772413793 L22.8855172,0.0772413793 Z M11.4482759,2.59724138 L2.52275862,2.59724138 L2.52275862,15.1724138 L3.80137931,16.0137931 L4.35310345,14.7724138 C4.44984711,14.5554705 4.61704875,14.3775758 4.82758621,14.2675862 L4.82758621,14.2675862 L8.09103448,12.5724138 C8.16279731,12.535068 8.24959368,12.5420331 8.31448276,12.5903448 C9.20977525,13.2774482 10.3059232,13.6515536 11.4344828,13.6551724 L11.4344828,13.6551724 L11.4344828,20.9737931 L19.0855172,16.0137931 L18.5337931,14.7724138 C18.4370494,14.5554705 18.2698478,14.3775758 18.0593103,14.2675862 L18.0593103,14.2675862 L14.8027586,12.5724138 C14.7309958,12.535068 14.6441994,12.5420331 14.5793103,12.5903448 C13.6807238,13.2791898 12.5805134,13.6533583 11.4482759,13.6551724 L11.4482759,13.6551724 L11.4358621,13.6551724 L11.4358621,12.3337931 L11.4482759,12.3337931 C13.7448276,12.3337931 15.6068966,10.1544828 15.6068966,7.46482759 C15.6068966,3.73655172 13.7448276,2.59724138 11.4482759,2.59724138 L11.4482759,2.59724138 Z M11.4289655,2.59724138 L11.4289655,12.3337931 C9.13655172,12.3255172 7.28137931,10.1489655 7.28137931,7.46482759 C7.28137931,3.74344828 9.13655172,2.60137931 11.4289655,2.59724138 L11.4289655,2.59724138 Z" id="Combined-Shape" fill="#FFAE00"></path>
                                <path d="M7.28137931,7.46482759 C7.28137931,3.74068966 9.13655172,2.60137931 11.4289655,2.59724138 L2.52275862,2.59724138 L2.52275862,15.1724138 L3.80551724,16.0082759 L4.35724138,14.7668966 C4.45394923,14.5526619 4.61950611,14.3769094 4.82758621,14.2675862 L8.08413793,12.5724138 C8.15590076,12.535068 8.24269713,12.5420331 8.30758621,12.5903448 C9.20325382,13.2777342 10.2999334,13.6518555 11.4289655,13.6551724 L11.4289655,12.3337931 C9.13655172,12.3255172 7.28137931,10.1489655 7.28137931,7.46482759 Z" id="Path" fill="#161D2B"></path>
                                <path d="M11.4482759,12.3337931 C13.7448276,12.3337931 15.6068966,10.1544828 15.6068966,7.46482759 C15.6068966,3.74068966 13.7448276,2.59724138 11.4482759,2.59724138 L11.4358621,2.59724138 L11.4358621,12.3337931 L11.4482759,12.3337931 Z" id="Path" fill="#161D2B"></path>
                                <path d="M18.0524138,14.2675862 L14.7958621,12.5724138 C14.7240992,12.535068 14.6373029,12.5420331 14.5724138,12.5903448 C13.675703,13.277759 12.5781508,13.6518475 11.4482759,13.6551724 L11.4358621,13.6551724 L11.4358621,20.9655172 L11.4358621,20.9655172 L11.4358621,20.9655172 L19.0758621,16 L18.5241379,14.7586207 C18.4255663,14.5472517 18.2596602,14.3745541 18.0524138,14.2675862 L18.0524138,14.2675862 Z" id="Shape" fill="#161D2B"></path>
                                <path d="M0.5,0.577241379 L0.5,16.2929684 L11.437372,23.3444868 L22.3855172,16.292826 L22.3855172,0.577241379 L0.5,0.577241379 Z" id="Path" stroke-opacity="0.2" stroke="#06090D"></path>
                            </g>
                        </g>
                    </g>
                </g>
            </g>
        </g>
    </g>
</svg>