<?xml version="1.0" encoding="UTF-8"?>
<svg width="6px" height="7px" viewBox="0 0 6 7" version="1.1" xmlns="http://www.w3.org/2000/svg" xmlns:xlink="http://www.w3.org/1999/xlink">
    <!-- Generator: Sketch 52.3 (67297) - http://www.bohemiancoding.com/sketch -->
    <title>Shape</title>
    <desc>Created with Sketch.</desc>
    <g id="Symbols" stroke="none" stroke-width="1" fill="none" fill-rule="evenodd">
        <g id="In-Use" transform="translate(-4.000000, -3.000000)" fill="#FFFFFF" fill-rule="nonzero">
            <g id="lock" transform="translate(4.000000, 3.000000)">
                <path d="M5.35714286,3.0625 L5.03571429,3.0625 L5.03571429,2.078125 C5.03571429,0.932421875 4.12232143,0 3,0 C1.87767857,0 0.964285714,0.932421875 0.964285714,2.078125 L0.964285714,3.0625 L0.642857143,3.0625 C0.287946429,3.0625 0,3.35644531 0,3.71875 L0,6.34375 C0,6.70605469 0.287946429,7 0.642857143,7 L5.35714286,7 C5.71205357,7 6,6.70605469 6,6.34375 L6,3.71875 C6,3.35644531 5.71205357,3.0625 5.35714286,3.0625 Z M4,3 L2,3 L2,2 C2,1.44861111 2.44861111,1 3,1 C3.55138889,1 4,1.44861111 4,2 L4,3 Z" id="Shape"></path>
            </g>
        </g>
    </g>
</svg>