<?xml version="1.0" encoding="UTF-8"?>
<svg width="18px" height="18px" viewBox="0 0 18 18" version="1.1" xmlns="http://www.w3.org/2000/svg" xmlns:xlink="http://www.w3.org/1999/xlink">
    <!-- Generator: Sketch 52.3 (67297) - http://www.bohemiancoding.com/sketch -->
    <title>Shape</title>
    <desc>Created with Sketch.</desc>
    <g id="Campaign-Overview" stroke="none" stroke-width="1" fill="none" fill-rule="evenodd">
        <g transform="translate(-1196.000000, -61.000000)" fill="#F9F9FA" fill-rule="nonzero" id="Search">
            <g transform="translate(1185.000000, 50.000000)">
                <g id="if_Find01_928435" transform="translate(11.000000, 11.000000)">
                    <path d="M17.5737454,15.4833672 L13.4354215,11.2880575 C14.1385532,10.1533223 14.5466423,8.81213197 14.5466423,7.37278329 C14.5466423,3.30067077 11.2901123,0 7.27316963,0 C3.25622696,0 0,3.30067077 0,7.37278329 C0,11.4450494 3.25607542,14.745413 7.27316963,14.745413 C8.81839237,14.745413 10.2496593,14.2556965 11.4274048,13.4235778 L15.5164791,17.5689635 C15.800611,17.8566796 16.1730889,18 16.5451122,18 C16.9175902,18 17.2896135,17.8566796 17.5742,17.5689635 C18.1420091,16.9927631 18.1420091,16.0594139 17.5737454,15.4833672 Z M7.27316963,12.3567393 C4.55808128,12.3567393 2.35685489,10.1255184 2.35685489,7.37309051 C2.35685489,4.62066258 4.55808128,2.38928809 7.27316963,2.38928809 C9.98840952,2.38928809 12.1894844,4.62066258 12.1894844,7.37309051 C12.1894844,10.1255184 9.98840952,12.3567393 7.27316963,12.3567393 Z" id="Shape"></path>
                </g>
            </g>
        </g>
    </g>
</svg>