<?xml version="1.0" encoding="UTF-8"?>
<svg width="8px" height="7px" viewBox="0 0 8 7" version="1.1" xmlns="http://www.w3.org/2000/svg" xmlns:xlink="http://www.w3.org/1999/xlink">
    <!-- Generator: Sketch 52.3 (67297) - http://www.bohemiancoding.com/sketch -->
    <title>Path</title>
    <desc>Created with Sketch.</desc>
    <g id="Symbols" stroke="none" stroke-width="1" fill="none" fill-rule="evenodd">
        <g id="Available" transform="translate(-3.000000, -4.000000)" fill="#FFFFFF">
            <path d="M9.87346461,4.07647723 C9.78045125,3.97450759 9.62902678,3.97450759 9.53664833,4.07647723 L5.98722067,7.92332514 C5.89420732,8.0259861 5.7424654,8.0259861 5.65008695,7.92332514 L4.09489098,6.1988284 C4.04886048,6.14767075 3.98854465,6.12243758 3.92791137,6.12209192 C3.86664319,6.12174626 3.80442265,6.14697943 3.75775725,6.1988284 L3.07047428,6.87148237 C3.02476123,6.92264002 3,6.98658708 3,7.05329942 C3,7.12035742 3.02476123,7.19052636 3.07079173,7.24133835 L4.63900322,9.03323875 C4.73169912,9.13555405 4.8837585,9.30147076 4.97613695,9.40309474 L5.6504044,10.1431524 C5.7431003,10.2444307 5.89452477,10.2444307 5.98753812,10.1431524 L10.5480495,5.18639085 C10.6410629,5.08476687 10.6410629,4.91781318 10.5480495,4.8161892 L9.87346461,4.07647723 Z" id="Path"></path>
        </g>
    </g>
</svg>